<?xml version="1.0" standalone="no"?>
<!DOCTYPE svg PUBLIC "-//W3C//DTD SVG 20010904//EN"
 "http://www.w3.org/TR/2001/REC-SVG-20010904/DTD/svg10.dtd">
<svg version="1.0" xmlns="http://www.w3.org/2000/svg"
 width="199.000000pt" height="253.000000pt" viewBox="0 0 199.000000 253.000000"
 preserveAspectRatio="xMidYMid meet">

<g transform="translate(0.000000,253.000000) scale(0.100000,-0.100000)"
fill="#000000" stroke="none">
<path d="M898 2520 c-243 -38 -450 -227 -515 -471 -24 -91 -22 -244 6 -329 11
-36 21 -71 21 -77 0 -9 -21 -13 -70 -13 -85 0 -120 -14 -121 -49 l-1 -26 -8
25 -8 25 -2 -25 c-2 -18 -4 -20 -7 -7 -2 9 -9 15 -14 11 -5 -3 -6 -10 -3 -16
4 -6 3 -8 -3 -5 -16 10 -47 -31 -112 -148 -50 -89 -61 -118 -61 -155 0 -93 38
-158 107 -181 l33 -11 0 -354 c0 -292 -2 -354 -14 -354 -26 0 -65 -41 -72 -74
-8 -46 18 -96 46 -89 11 3 20 0 20 -6 0 -22 44 -61 77 -67 18 -3 62 -1 98 6
85 16 112 2 117 -62 l3 -43 56 -3 c66 -3 101 19 126 79 12 31 22 41 52 49 20
5 44 10 54 10 9 0 17 5 17 12 0 8 27 9 103 2 56 -4 156 -6 222 -4 180 7 203 6
299 -13 107 -20 120 -29 112 -78 -8 -50 12 -65 101 -74 81 -8 85 -5 97 70 l7
40 62 -2 c34 -1 86 -2 114 -3 44 -1 55 -5 64 -23 15 -29 50 -56 72 -57 14 0
17 9 17 53 l0 53 -45 12 c-25 7 -54 12 -64 12 -14 0 -18 5 -14 21 4 16 8 17
14 7 7 -10 9 -10 9 0 0 6 7 12 15 12 17 0 35 38 35 75 0 27 -45 85 -66 85 -12
0 -14 56 -14 355 l0 355 33 14 c66 28 97 83 97 172 0 51 -5 63 -71 167 -72
113 -118 169 -120 145 0 -7 -4 -3 -9 10 -6 14 -21 25 -40 28 -16 4 -30 10 -30
15 0 5 -32 9 -71 9 -64 0 -70 2 -64 18 24 60 45 176 45 245 0 137 -50 287
-124 376 -32 39 -35 40 -39 19 -4 -20 -4 -19 -6 5 0 15 -6 27 -12 27 -5 0 -8
4 -5 9 9 14 -77 85 -152 124 -114 60 -269 86 -394 67z m275 -81 c79 -26 138
-60 207 -118 30 -25 58 -45 63 -43 5 1 6 -2 2 -8 -3 -5 5 -25 18 -42 94 -125
131 -319 92 -473 -48 -188 -196 -349 -373 -405 -37 -12 -74 -24 -82 -27 -29
-10 -186 -2 -245 13 -153 40 -299 157 -368 296 -114 230 -73 485 108 665 81
81 174 133 286 158 82 19 209 12 292 -16z m-823 -862 c0 -2 -22 -55 -49 -118
l-50 -114 -80 -3 c-45 -2 -81 0 -81 3 0 3 21 42 46 86 51 87 96 131 146 140
40 8 68 10 68 6z m129 -53 l42 -56 -12 -60 c-9 -45 -17 -61 -33 -67 -19 -7
-156 -3 -156 4 0 2 16 41 36 87 19 45 42 98 49 116 8 17 18 32 23 32 5 0 28
-25 51 -56z m1119 -185 c-40 -3 -80 -3 -89 2 -8 4 -21 32 -28 62 l-12 54 43
62 43 62 58 -118 58 -118 -73 -6z m152 210 c26 -19 84 -99 144 -196 5 -10 -12
-13 -74 -13 l-81 0 -55 116 c-30 63 -54 117 -54 119 0 14 93 -6 120 -26z
m-1123 -174 c25 -19 42 -35 37 -36 -19 -2 -99 3 -102 6 -5 5 8 65 14 65 3 0
26 -16 51 -35z m802 -17 c1 -13 -10 -17 -54 -20 -30 -1 -55 -1 -54 2 0 3 21
19 47 36 49 32 59 29 61 -18z m-1189 -129 c0 -52 -42 -99 -90 -99 -48 0 -90
47 -90 99 l0 41 90 0 90 0 0 -41z m240 0 c0 -31 -6 -47 -29 -70 -59 -58 -138
-24 -148 64 l-6 47 92 0 91 0 0 -41z m240 -2 c0 -48 -24 -83 -65 -93 -60 -15
-102 21 -112 96 l-6 40 92 0 91 0 0 -43z m178 37 c52 -6 61 -10 64 -28 13 -79
-79 -135 -141 -87 -18 14 -26 32 -31 70 -7 58 -11 57 108 45z m309 -34 c-7
-52 -30 -88 -62 -96 -61 -15 -115 26 -115 87 0 37 1 38 43 42 23 2 64 4 91 5
l49 2 -6 -40z m240 -7 c-10 -88 -89 -122 -148 -64 -23 23 -29 39 -29 70 l0 41
91 0 92 0 -6 -47z m243 6 c0 -52 -42 -99 -90 -99 -48 0 -90 47 -90 99 l0 41
90 0 90 0 0 -41z m240 0 c0 -54 -42 -99 -93 -99 -48 0 -87 45 -87 101 l0 39
90 0 90 0 0 -41z m-1610 -138 c55 -33 142 -22 179 22 12 15 16 15 42 -8 54
-45 126 -45 185 0 31 24 32 24 49 5 43 -48 140 -50 193 -5 29 24 29 24 47 5
43 -47 141 -50 192 -6 l27 24 33 -25 c48 -37 110 -41 162 -12 23 12 41 27 41
31 0 5 15 -2 33 -16 60 -46 142 -47 190 -2 21 19 28 22 37 11 6 -7 24 -18 40
-25 26 -11 30 -18 30 -51 l0 -39 -119 0 c-133 0 -172 -9 -219 -53 -44 -42 -52
-79 -52 -233 0 -219 5 -224 235 -224 l155 0 0 -60 0 -60 -89 0 c-66 0 -92 -4
-101 -15 -10 -12 -10 -18 0 -30 10 -12 38 -15 129 -15 78 0 121 -4 129 -12 18
-18 14 -56 -7 -68 -13 -7 -302 -10 -866 -10 -564 0 -853 3 -866 10 -22 12 -25
52 -6 69 10 8 202 12 658 13 l644 3 0 25 0 25 -612 3 -613 2 0 60 0 60 150 0
c226 0 230 4 230 224 0 159 -6 185 -53 234 -41 43 -79 52 -214 52 l-113 0 0
38 c1 31 6 41 38 63 20 14 39 23 42 19 3 -4 21 -17 40 -29z m135 -165 c55 -23
65 -55 65 -214 0 -94 -4 -142 -12 -150 -8 -8 -58 -12 -160 -12 l-148 0 0 195
0 195 110 0 c73 0 122 -5 145 -14z m1346 -123 c1 -76 2 -147 2 -158 0 -11 -1
-37 -1 -57 l-2 -38 -155 0 c-137 0 -155 2 -164 18 -5 9 -10 86 -12 170 -3 121
-7 155 -19 163 -13 9 -13 10 0 6 8 -2 17 -14 18 -27 l4 -23 12 24 c22 45 69
59 199 59 l117 0 1 -137z m-1621 -618 c0 -8 -2 -15 -4 -15 -2 0 -6 7 -10 15
-3 8 -1 15 4 15 6 0 10 -7 10 -15z m17 -7 c-3 -8 -6 -5 -6 6 -1 11 2 17 5 13
3 -3 4 -12 1 -19z m20 0 c-3 -8 -6 -5 -6 6 -1 11 2 17 5 13 3 -3 4 -12 1 -19z
m34 13 c6 10 9 8 9 -8 0 -16 -4 -21 -15 -17 -8 4 -15 14 -14 23 0 12 2 12 6 2
5 -11 7 -11 14 0z m1549 -6 c0 -8 -2 -15 -4 -15 -2 0 -6 7 -10 15 -3 8 -1 15
4 15 6 0 10 -7 10 -15z m37 -7 c-3 -8 -6 -5 -6 6 -1 11 2 17 5 13 3 -3 4 -12
1 -19z"/>
<path d="M615 2235 c-30 -29 -30 -28 -4 -190 12 -71 23 -169 25 -217 3 -68 9
-100 28 -140 34 -72 98 -135 176 -172 59 -28 74 -31 160 -31 83 1 102 4 151
28 132 64 195 156 209 304 5 48 16 126 25 173 8 47 18 117 22 156 5 68 5 71
-22 92 -15 12 -37 22 -48 22 -11 0 -72 -25 -136 -56 l-116 -57 -88 2 c-85 2
-93 4 -199 57 -61 30 -122 54 -135 54 -13 0 -35 -11 -48 -25z m169 -92 l58
-29 -41 -33 c-28 -22 -41 -40 -41 -57 0 -38 27 -41 63 -6 94 88 230 95 334 15
48 -37 70 -41 80 -16 4 11 -7 28 -36 56 -23 21 -41 41 -39 43 15 14 175 81
181 75 8 -8 -15 -177 -37 -272 -7 -32 -11 -70 -8 -87 2 -17 -4 -56 -13 -87
-22 -77 -97 -154 -175 -181 -119 -40 -251 -13 -333 70 -56 56 -69 90 -78 206
-5 58 -17 159 -27 225 -11 66 -17 123 -15 127 5 9 41 -5 127 -49z"/>
<path d="M807 1953 c-19 -19 -4 -42 37 -58 56 -22 81 -17 81 14 0 19 -8 27
-35 37 -40 14 -73 17 -83 7z"/>
<path d="M1098 1944 c-25 -11 -38 -23 -38 -35 0 -28 26 -34 78 -17 39 12 47
18 47 38 0 31 -34 36 -87 14z"/>
<path d="M927 1804 c-13 -14 -7 -41 13 -59 29 -26 22 -59 -13 -63 -23 -3 -30
2 -43 33 -16 38 -38 44 -57 14 -15 -23 18 -85 54 -99 16 -7 43 -9 61 -6 39 8
57 8 118 0 39 -5 49 -2 72 19 33 30 45 71 28 92 -20 24 -39 17 -55 -21 -12
-30 -19 -35 -42 -32 -36 4 -42 32 -13 63 12 13 20 31 18 42 -3 15 -14 18 -69
21 -35 2 -68 0 -72 -4z"/>
<path d="M759 991 c-46 -15 -78 -42 -99 -85 -17 -37 -20 -62 -20 -190 0 -163
8 -195 58 -215 20 -8 111 -11 316 -9 l288 3 24 28 c23 27 24 33 24 189 0 184
-8 213 -73 256 l-40 27 -226 2 c-124 1 -238 -2 -252 -6z m465 -65 c60 -25 66
-43 66 -206 0 -100 -4 -150 -12 -158 -17 -17 -549 -17 -566 0 -8 8 -12 56 -12
153 0 223 3 225 293 225 146 0 206 -4 231 -14z"/>
<path d="M1500 356 c-18 -22 -5 -48 22 -44 17 2 23 10 23 28 0 29 -26 38 -45
16z"/>
</g>
</svg>
